<?xml version="1.0" standalone="no"?>
<!DOCTYPE svg PUBLIC "-//W3C//DTD SVG 20010904//EN"
 "http://www.w3.org/TR/2001/REC-SVG-20010904/DTD/svg10.dtd">
<svg version="1.0" xmlns="http://www.w3.org/2000/svg"
 width="1023.000000pt" height="94.000000pt" viewBox="0 0 1023.000000 94.000000"
 preserveAspectRatio="xMidYMid meet">

<g transform="translate(0.000000,94.000000) scale(0.100000,-0.100000)"
fill="#000000" stroke="none">
<path d="M5146 713 l-46 -58 36 -3 c36 -3 45 3 169 110 5 4 -19 8 -52 8 l-61
0 -46 -57z"/>
<path d="M1470 593 c-18 -76 -43 -182 -55 -236 l-23 -98 56 3 57 3 8 46 c6 30
19 56 36 73 l27 26 33 -75 33 -75 54 0 c30 0 54 4 54 10 0 5 -19 49 -42 96
l-43 86 80 74 80 74 -65 0 -66 0 -69 -70 c-38 -38 -70 -68 -72 -66 -2 2 8 52
22 112 14 60 27 119 30 132 5 21 2 22 -49 22 l-54 0 -32 -137z"/>
<path d="M2605 708 c-10 -45 -86 -372 -94 -410 l-9 -39 56 3 56 3 26 115 c28
124 39 140 103 140 39 0 43 -21 22 -120 -33 -154 -35 -140 26 -140 l54 0 28
123 c37 167 36 187 -14 212 -39 21 -83 19 -129 -5 -22 -11 -41 -20 -44 -20 -2
0 2 24 9 53 29 119 33 107 -30 107 -48 0 -55 -3 -60 -22z"/>
<path d="M6147 723 c-3 -5 -8 -23 -12 -40 l-7 -33 60 0 c59 0 60 0 66 31 3 17
6 35 6 40 0 11 -107 12 -113 2z"/>
<path d="M8567 664 c-9 -36 -17 -68 -20 -70 -2 -3 -16 0 -31 6 -102 38 -218
-41 -247 -168 -32 -136 57 -220 171 -162 36 18 42 19 37 5 -6 -14 1 -16 50
-13 l58 3 52 225 c29 124 52 228 53 233 0 4 -24 7 -54 7 l-54 0 -15 -66z m-42
-144 c3 -5 -2 -45 -11 -89 -18 -83 -33 -101 -87 -101 -34 0 -47 19 -47 67 0
50 20 95 52 117 25 18 83 21 93 6z"/>
<path d="M9097 723 c-3 -5 -8 -23 -12 -40 l-7 -33 60 0 c59 0 60 0 66 31 3 17
6 35 6 40 0 11 -107 12 -113 2z"/>
<path d="M9517 664 c-9 -36 -17 -68 -20 -70 -2 -3 -16 0 -31 6 -102 38 -218
-41 -247 -168 -32 -136 57 -220 171 -162 36 18 42 19 37 5 -6 -14 1 -16 50
-13 l58 3 52 225 c29 124 52 228 53 233 0 4 -24 7 -54 7 l-54 0 -15 -66z m-42
-144 c3 -5 -2 -45 -11 -89 -18 -83 -33 -101 -87 -101 -34 0 -47 19 -47 67 0
50 20 95 52 117 25 18 83 21 93 6z"/>
<path d="M4225 700 c-58 -23 -117 -77 -148 -134 -18 -33 -22 -58 -22 -133 0
-91 0 -92 33 -126 56 -58 159 -73 257 -38 48 17 50 19 63 70 7 29 11 55 9 58
-3 2 -24 -8 -48 -24 -35 -23 -54 -28 -102 -28 -75 0 -97 22 -97 99 0 157 152
242 257 144 13 -12 25 -19 29 -16 3 3 11 29 19 58 l14 52 -37 15 c-59 25 -168
27 -227 3z"/>
<path d="M210 706 c0 -3 -22 -102 -50 -221 -27 -119 -50 -218 -50 -221 0 -2
26 -4 58 -4 l58 0 18 78 c10 42 20 85 22 95 5 14 18 17 90 17 46 0 84 -3 84
-7 0 -5 -9 -42 -20 -83 -28 -105 -29 -101 37 -98 l57 3 51 223 52 222 -58 0
c-56 0 -59 -1 -65 -27 -10 -47 -25 -107 -30 -125 -5 -15 -18 -18 -90 -18 -77
0 -85 2 -80 18 3 9 10 40 16 67 6 28 13 58 16 68 5 15 -2 17 -55 17 -34 0 -61
-2 -61 -4z"/>
<path d="M7360 706 c0 -3 -22 -102 -50 -221 -27 -119 -50 -218 -50 -221 0 -2
24 -4 54 -4 l54 0 26 113 c14 61 29 127 32 145 9 45 19 30 33 -48 19 -102 18
-100 62 -100 38 0 40 2 96 85 31 47 57 84 59 83 1 -2 -11 -59 -27 -128 -16
-69 -29 -131 -29 -137 0 -9 17 -13 55 -13 l54 0 10 38 c18 68 91 390 91 401 0
7 -26 11 -67 11 l-68 -1 -74 -109 c-40 -61 -75 -110 -76 -110 -1 0 -12 50 -25
110 l-23 110 -69 0 c-37 0 -68 -2 -68 -4z"/>
<path d="M2321 663 c-6 -21 -11 -44 -11 -50 0 -7 -11 -13 -24 -13 -16 0 -26
-7 -30 -22 -10 -38 -7 -48 14 -48 22 0 22 4 -6 -111 -32 -128 -8 -169 95 -169
67 0 79 6 90 48 l10 32 -38 -6 c-57 -9 -65 7 -46 97 24 115 20 109 75 109 47
0 50 1 58 33 l8 32 -48 3 c-52 3 -53 5 -39 65 l9 37 -54 0 c-53 0 -53 0 -63
-37z"/>
<path d="M5861 663 c-6 -21 -11 -44 -11 -50 0 -7 -11 -13 -24 -13 -16 0 -26
-7 -30 -22 -10 -38 -7 -48 14 -48 22 0 22 4 -6 -111 -32 -128 -8 -169 95 -169
67 0 79 6 90 48 l10 32 -38 -6 c-57 -9 -65 7 -46 97 24 115 20 109 75 109 47
0 50 1 58 33 l8 32 -48 3 c-52 3 -53 5 -39 65 l9 37 -54 0 c-53 0 -53 0 -63
-37z"/>
<path d="M738 603 c-33 -4 -38 -8 -44 -39 -3 -19 -5 -36 -3 -38 2 -2 32 1 67
7 73 13 115 2 120 -29 3 -19 -5 -22 -78 -32 -129 -18 -180 -57 -180 -136 0
-76 85 -109 168 -67 35 18 42 19 42 6 0 -12 12 -15 53 -15 l54 0 27 119 c33
143 31 176 -7 205 -23 17 -44 21 -105 22 -42 1 -94 0 -114 -3z m117 -220 c-7
-40 -16 -49 -52 -59 -39 -10 -73 4 -73 30 0 29 19 46 63 56 66 16 70 14 62
-27z"/>
<path d="M1210 601 c-138 -45 -210 -188 -145 -288 36 -54 156 -80 230 -49 27
12 36 23 45 56 6 23 10 44 7 46 -2 2 -21 -5 -42 -16 -47 -24 -93 -26 -123 -4
-18 12 -22 25 -22 64 0 97 87 146 174 101 22 -11 41 -20 42 -18 2 1 7 22 12
45 9 38 8 44 -11 53 -26 15 -134 21 -167 10z"/>
<path d="M1928 603 c-33 -4 -38 -8 -44 -39 -3 -19 -5 -36 -3 -38 2 -2 32 1 67
7 73 13 115 2 120 -29 3 -19 -5 -22 -78 -32 -129 -18 -180 -57 -180 -136 0
-76 85 -109 168 -67 35 18 42 19 42 6 0 -12 12 -15 53 -15 l54 0 27 119 c33
143 31 176 -7 205 -23 17 -44 21 -105 22 -42 1 -94 0 -114 -3z m117 -220 c-7
-40 -16 -49 -52 -59 -39 -10 -73 4 -73 30 0 29 19 46 63 56 66 16 70 14 62
-27z"/>
<path d="M3099 596 c-92 -32 -144 -107 -143 -206 0 -68 21 -103 75 -124 107
-43 234 6 280 109 27 58 25 145 -3 180 -41 52 -130 70 -209 41z m103 -73 c25
-23 23 -88 -4 -143 -27 -52 -62 -70 -103 -52 -22 10 -25 18 -25 62 0 111 74
186 132 133z"/>
<path d="M3601 590 c-52 -24 -52 -24 -45 -5 5 12 -4 15 -50 15 -49 0 -56 -2
-61 -22 -3 -13 -20 -88 -39 -168 l-33 -145 50 -3 c27 -2 53 0 57 5 4 4 17 55
30 113 12 58 27 110 32 117 12 16 63 26 88 18 26 -8 26 -36 0 -143 -28 -116
-29 -112 33 -112 l52 0 28 123 c37 167 36 187 -14 212 -38 20 -75 18 -128 -5z"/>
<path d="M5028 603 c-33 -4 -38 -8 -44 -39 -3 -19 -5 -36 -3 -38 2 -2 32 1 67
7 73 13 115 2 120 -29 3 -19 -5 -22 -78 -32 -129 -18 -180 -57 -180 -136 0
-76 85 -109 168 -67 35 18 42 19 42 6 0 -12 12 -15 53 -15 l54 0 27 119 c33
143 31 176 -7 205 -23 17 -44 21 -105 22 -42 1 -94 0 -114 -3z m117 -220 c-7
-40 -16 -49 -52 -59 -39 -10 -73 4 -73 30 0 29 19 46 63 56 66 16 70 14 62
-27z"/>
<path d="M5551 590 c-52 -24 -52 -24 -45 -5 5 12 -4 15 -50 15 -49 0 -56 -2
-61 -22 -3 -13 -20 -88 -39 -168 l-33 -145 50 -3 c27 -2 53 0 57 5 4 4 17 55
30 113 12 58 27 110 32 117 12 16 63 26 88 18 26 -8 26 -36 0 -143 -28 -116
-29 -112 33 -112 l52 0 28 123 c37 167 36 187 -14 212 -38 20 -75 18 -128 -5z"/>
<path d="M6430 601 c-138 -45 -210 -188 -145 -288 36 -54 156 -80 230 -49 27
12 36 23 45 56 6 23 10 44 7 46 -2 2 -21 -5 -42 -16 -47 -24 -93 -26 -123 -4
-18 12 -22 25 -22 64 0 97 87 146 174 101 22 -11 41 -20 42 -18 2 1 7 22 12
45 9 38 8 44 -11 53 -26 15 -134 21 -167 10z"/>
<path d="M6769 596 c-92 -32 -144 -107 -143 -206 0 -68 21 -103 75 -124 107
-43 234 6 280 109 27 58 25 145 -3 180 -41 52 -130 70 -209 41z m103 -73 c25
-23 23 -88 -4 -143 -27 -52 -62 -70 -103 -52 -22 10 -25 18 -25 62 0 111 74
186 132 133z"/>
<path d="M7958 603 c-33 -4 -38 -8 -44 -39 -3 -19 -5 -36 -3 -38 2 -2 32 1 67
7 73 13 115 2 120 -29 3 -19 -5 -22 -78 -32 -129 -18 -180 -57 -180 -136 0
-76 85 -109 168 -67 35 18 42 19 42 6 0 -12 12 -15 53 -15 l54 0 27 119 c33
143 31 176 -7 205 -23 17 -44 21 -105 22 -42 1 -94 0 -114 -3z m117 -220 c-7
-40 -16 -49 -52 -59 -39 -10 -73 4 -73 30 0 29 19 46 63 56 66 16 70 14 62
-27z"/>
<path d="M4545 588 c-2 -7 -16 -68 -31 -134 -23 -104 -25 -126 -15 -152 22
-53 92 -67 161 -32 47 24 54 25 46 5 -4 -12 5 -15 49 -15 l54 0 10 38 c6 20
22 89 36 152 14 63 28 123 31 133 5 15 -2 17 -50 17 -44 0 -56 -4 -59 -17 -3
-10 -15 -61 -27 -113 -13 -52 -27 -101 -32 -107 -17 -22 -78 -28 -96 -9 -17
17 -15 31 22 189 l14 57 -54 0 c-35 0 -56 -5 -59 -12z"/>
<path d="M6115 578 c-3 -13 -18 -81 -35 -153 -16 -72 -32 -138 -34 -148 -4
-16 2 -18 51 -15 l56 3 33 145 c19 80 36 155 39 168 5 21 2 22 -50 22 -48 0
-55 -3 -60 -22z"/>
<path d="M8755 578 c-3 -13 -18 -81 -35 -153 -16 -72 -32 -138 -34 -148 -4
-16 2 -18 52 -15 l55 3 24 105 c13 58 28 109 33 114 5 5 37 12 71 15 l63 6 12
48 12 47 -27 0 c-15 0 -49 -11 -75 -24 l-48 -24 6 24 c6 23 4 24 -49 24 -48 0
-55 -3 -60 -22z"/>
<path d="M9065 578 c-3 -13 -18 -81 -35 -153 -16 -72 -32 -138 -34 -148 -4
-16 2 -18 51 -15 l56 3 33 145 c19 80 36 155 39 168 5 21 2 22 -50 22 -48 0
-55 -3 -60 -22z"/>
</g>
</svg>
